Coordinates
version=1
nRows=5
nColumns=63
inDegrees=yes

Units are S.I. units (second, meters, Newtons, ...)
If the header above contains a line with 'inDegrees', this indicates whether rotational values are in degrees (yes) or radians (no).

endheader
time	pelvis_tilt	pelvis_list	pelvis_rotation	pelvis_tx	pelvis_ty	pelvis_tz	hip_flexion_r	hip_adduction_r	hip_rotation_r	knee_angle_r	knee_angle_r_beta	ankle_angle_r	subtalar_angle_r	mtp_angle_r	hip_flexion_l	hip_adduction_l	hip_rotation_l	knee_angle_l	knee_angle_l_beta	ankle_angle_l	subtalar_angle_l	mtp_angle_l	L5_S1_Flex_Ext	L5_S1_Lat_Bending	L5_S1_axial_rotation	L4_L5_Flex_Ext	L4_L5_Lat_Bending	L4_L5_axial_rotation	L3_L4_Flex_Ext	L3_L4_Lat_Bending	L3_L4_axial_rotation	L2_L3_Flex_Ext	L2_L3_Lat_Bending	L2_L3_axial_rotation	L1_L2_Flex_Ext	L1_L2_Lat_Bending	L1_L2_axial_rotation	L1_T12_Flex_Ext	L1_T12_Lat_Bending	L1_T12_axial_rotation	Abs_r3	Abs_r2	Abs_r1	Abs_t1	Abs_t2	neck_flexion	neck_bending	neck_rotation	arm_flex_r	arm_add_r	arm_rot_r	elbow_flex_r	pro_sup_r	wrist_flex_r	wrist_dev_r	arm_flex_l	arm_add_l	arm_rot_l	elbow_flex_l	pro_sup_l	wrist_flex_l	wrist_dev_l
      4.60000000	      5.12498673	     -0.55014861	    175.49660170	      2.44566245	      0.88506795	      0.59150835	     13.07510826	      0.67906825	     -8.39051670	     22.86663421	      0.39909806	     23.17066594	     -1.79874551	      0.00000000	      9.57804636	      0.49982353	     -0.68904275	     16.73515856	      0.29208362	     18.95797469	    -18.77632362	      0.00000000	      0.00455229	     -0.27808553	     -1.13496251	      0.00845406	     -0.36985375	     -1.20589767	      0.00747896	     -0.67613716	     -1.20589767	      0.00520281	     -0.67613716	     -0.99309220	      0.00422726	     -0.56707201	     -0.92215704	      0.00260118	     -0.43075449	     -0.85122188	      0.03251655	     -3.14575913	     -6.31232100	      0.00000000	      0.00000000	     -0.00000000	      0.00000000	      0.00000000	      6.68627530	    -11.81792797	     85.50348720	     19.75503777	     53.03193109	      0.00000000	      5.00000014	    -11.49678757	    -10.50828416	     15.77448399	     22.49722004	     53.24318968	      0.00000000	      5.00000014
      4.63333333	      5.13434944	     -0.38524757	    175.51943706	      2.44560112	      0.88513133	      0.59140627	     12.73927171	      1.28192324	     -6.59915193	     22.07847758	      0.38534213	     22.36964866	     -4.45957911	      0.00000000	      9.55559653	      0.32890194	     -0.59578339	     16.78458732	      0.29294631	     18.96749654	    -18.76246046	      0.00000000	      0.00538886	     -0.26185920	     -1.13817331	      0.01000766	     -0.34827274	     -1.20930914	      0.00885336	     -0.63668446	     -1.20930914	      0.00615893	     -0.63668446	     -0.99590165	      0.00500410	     -0.53398328	     -0.92476581	      0.00307920	     -0.40561990	     -0.85362998	      0.03849211	     -2.96220365	     -6.33017849	      0.00000000	      0.00000000	     -0.00000000	      0.00000000	      0.00000000	      7.00009485	    -11.79497552	     87.19614084	     19.64550430	     53.95467222	      0.00000000	      5.00000014	    -11.34089551	    -10.61770966	     16.66520315	     22.29877346	     54.58144099	      0.00000000	      5.00000014
      4.66666667	      5.15019518	     -0.24493372	    175.58349671	      2.44539437	      0.88526003	      0.59165414	     12.18545191	      1.53484145	     -6.48212669	     20.96968529	      0.36599005	     22.11963427	     -4.49348001	      0.00000000	      9.47735862	      0.21525529	     -0.64636947	     16.70400617	      0.29153991	     18.82619437	    -18.72158249	      0.00000000	      0.00711437	     -0.24428524	     -1.14685717	      0.01321210	     -0.32489937	     -1.21853574	      0.01168820	     -0.59395513	     -1.21853574	      0.00813101	     -0.59395513	     -1.00350002	      0.00660641	     -0.49814646	     -0.93182145	      0.00406515	     -0.37839784	     -0.86014287	      0.05081724	     -2.76340348	     -6.37847550	      0.00000000	      0.00000000	     -0.00000000	      0.00000000	      0.00000000	      6.99682151	    -11.82390783	     87.13610641	     19.50415144	     54.05568823	      0.00000000	      5.00000014	    -11.30745767	    -10.50649137	     16.60772868	     22.18244099	     54.71416302	      0.00000000	      5.00000014
      4.70000000	      5.15577629	      0.10639822	    175.93910262	      2.44514300	      0.88541863	      0.59184219	     11.14870269	      2.93993460	     -1.29345571	     18.76966531	      0.32759246	     19.49925981	    -12.55459886	      0.00000000	      9.50627093	     -0.08886114	     -0.11619246	     16.86571088	      0.29436219	     18.89373716	    -18.75429332	      0.00000000	      0.00544829	     -0.20680869	     -1.20502690	      0.01011802	     -0.27505556	     -1.28034108	      0.00895099	     -0.50283466	     -1.28034108	      0.00622685	     -0.50283466	     -1.05439853	      0.00505928	     -0.42172429	     -0.97908435	      0.00311315	     -0.32034666	     -0.90377017	      0.03891658	     -2.33946129	     -6.70199809	      0.00000000	      0.00000000	     -0.00000000	      0.00000000	      0.00000000	      6.98334559	    -11.95671305	     86.99987304	     19.59851473	     54.00400412	      0.00000000	      5.00000014	    -11.28894279	    -10.41926801	     16.51017664	     22.16754369	     55.44399511	      0.00000000	      5.00000014
      4.73333333	      5.14857109	      0.31667715	    176.16813703	      2.44481884	      0.88560718	      0.59231129	     10.00009619	      3.57570964	      1.07705522	     16.53795357	      0.28864174	     17.96680189	    -15.91606061	      0.00000000	      9.47288675	     -0.24017169	      0.06542340	     16.88634076	      0.29472224	     18.87579543	    -18.75341500	      0.00000000	      0.00542018	     -0.18151342	     -1.23749899	      0.01006582	     -0.24141285	     -1.31484268	      0.00890482	     -0.44133174	     -1.31484268	      0.00619473	     -0.44133174	     -1.08281162	      0.00503318	     -0.37014218	     -1.00546793	      0.00309709	     -0.28116430	     -0.92812424	      0.03871582	     -2.05331616	     -6.88259814	      0.00000000	      0.00000000	     -0.00000000	      0.00000000	      0.00000000	      6.90749916	    -12.08997478	     86.59687015	     19.63218320	     54.20176313	      0.00000000	      5.00000014	    -11.24042950	    -10.26987009	     16.34937531	     22.03346504	     56.04822840	      0.00000000	      5.00000014
